<svg width="128" height="128" viewBox="0 0 128 128" fill="none" xmlns="http://www.w3.org/2000/svg">
<path d="M110.779 91.9999C111.532 90.6472 112 89.1231 112 87.7544V40.2454C112 38.8768 111.533 37.353 110.779 36.0002L64 64.0001L110.779 91.9999Z" fill="#305090"/>
<path d="M68.1569 118.973L107.843 95.2189C108.986 94.5345 110.025 93.3529 110.779 91.9999L64 64L17.2214 92.0002C17.9746 93.3529 19.014 94.5349 20.1569 95.2189L59.8432 118.973C62.1293 120.342 65.8708 120.342 68.1569 118.973Z" fill="#284277"/>
<path d="M110.779 35.9998C110.025 34.6468 108.986 33.4652 107.843 32.7808L68.1569 9.02649C65.8707 7.65784 62.1293 7.65784 59.8431 9.02649L20.1569 32.7808C17.8704 34.1492 16 37.5083 16 40.2453V87.7543C16 89.123 16.4678 90.6471 17.2213 91.9998L64 64L110.779 35.9998Z" fill="#3B62B0"/>
<path d="M64.154 96C46.4242 96 32 81.6449 32 64C32 46.3551 46.4242 32 64.154 32C75.3832 32 85.8698 37.9027 91.6762 47.4471L77.9061 55.7059C74.9968 50.9439 69.7595 48 64.154 48C55.289 48 48.077 55.1774 48.077 64C48.077 72.8223 55.289 80 64.154 80C69.7446 80 74.9684 77.0724 77.8827 72.3329L91.682 80.5436C85.8766 90.0936 75.3869 96 64.154 96Z" fill="white"/>
<path fill-rule="evenodd" clip-rule="evenodd" d="M100 52V55.9895H91.9998V52H88.0002V55.9895H84V60H88.0002V67.979H84V72H88.0002V76H91.9998L92 72H100V76H104V72H108V67.9999H104V60H108V55.9895H104V52H100ZM100 67.9999V60H91.9998V67.979L100 67.9999Z" fill="white"/>
</svg>
